<svg
    width="80"
    height="57"
    viewBox="0 0 80 57"
    fill="none"
    xmlns="http://www.w3.org/2000/svg">
    <path class="svg_line" fill-rule="evenodd" clip-rule="evenodd" d="M33.7228 21.3518C32.6806 20.4343 31.2801 19.9732 29.4738 19.9732V13.4446C32.4022 13.4446 35.4939 14.2129 38.0367 16.4515C40.5746 18.6857 42.1672 22.0337 42.7953 26.4106C43.2906 29.8622 43.9497 32.6047 44.9356 34.424C45.8192 36.0545 46.7131 36.568 47.9468 36.568V43.0966C43.6696 43.0966 40.8746 40.6325 39.1957 37.5346C37.6192 34.6255 36.8424 30.889 36.3329 27.3379C35.8551 24.0084 34.77 22.2737 33.7228 21.3518Z"/>
    <path class="svg_node" fill-rule="evenodd" clip-rule="evenodd" d="M17.5553 0.639965C18.5933 0.643043 19.5086 1.16766 20.0529 1.96554L32.2447 14.6035C33.378 15.7783 33.378 17.6395 32.2447 18.8143L20.0549 31.4502C19.5092 32.2521 18.5892 32.7787 17.5461 32.7787H3.99658C2.32183 32.7787 0.964172 31.421 0.964172 29.7463V3.67236C0.964172 1.99761 2.32183 0.639951 3.99658 0.639951H17.4161C17.4626 0.63889 17.509 0.638899 17.5553 0.639965ZM16.1979 6.70477H7.02899V26.7139H16.1971L25.8488 16.7089L16.1979 6.70477Z"/>
    <path class="svg_node" fill-rule="evenodd" clip-rule="evenodd" d="M79.7802 39.552C79.7802 48.6519 72.4032 56.029 63.3032 56.029C54.2032 56.029 46.8262 48.6519 46.8262 39.552C46.8262 30.452 54.2032 23.075 63.3032 23.075C72.4032 23.075 79.7802 30.452 79.7802 39.552ZM63.3032 49.3577C68.7187 49.3577 73.1089 44.9675 73.1089 39.552C73.1089 34.1364 68.7187 29.7463 63.3032 29.7463C57.8877 29.7463 53.4975 34.1364 53.4975 39.552C53.4975 44.9675 57.8877 49.3577 63.3032 49.3577Z"/>
    <style>
        .svg_line {
            fill: #0090F9;
        }

        .svg_node {
            fill: #005B9C;
        }

        @media (prefers-color-scheme: dark) {
            .svg_line {
                fill: #5FBCFF;
            }
            .svg_node {
                fill: #ffffff;
            }
        }
    </style>
</svg>
